<svg xmlns="http://www.w3.org/2000/svg" viewBox="0 13.399999618530273 173.64999389648438 35" data-asc="0.968"><g fill="currentColor"><g fill="currentColor" transform="translate(0, 0)"><path d="M0 48.40L7.00 13.40L18.80 13.40L13.65 39.25L29.45 39.25L27.60 48.40L0 48.40ZM46.05 26.40L61.65 26.40L59.95 34.90L44.35 34.90L46.05 26.40M44.20 39.50L61.75 39.50L59.95 48.40L30.85 48.40L37.85 13.40L66.30 13.40L64.50 22.30L47.65 22.30L44.20 39.50ZM79.70 26.40L95.30 26.40L93.60 34.90L78 34.90L79.70 26.40M77.85 39.50L95.40 39.50L93.60 48.40L64.50 48.40L71.50 13.40L99.95 13.40L98.15 22.30L81.30 22.30L77.85 39.50ZM110.20 41.20L111.95 27.95L127.55 13.40L141.10 13.40L123.15 29.70L115.15 36.60L110.20 41.20M98.15 48.40L105.15 13.40L116.75 13.40L109.75 48.40L98.15 48.40M121.80 48.40L113.35 34.80L122.10 26.90L134.95 48.40L121.80 48.40ZM136.40 48.40L143.40 13.40L159.10 13.40Q166.05 13.40 169.85 16.42Q173.65 19.45 173.65 24.90Q173.65 29.30 171.48 32.60Q169.30 35.90 165.33 37.75Q161.35 39.60 155.95 39.60L144.65 39.60L150.95 34.65L148.20 48.40L136.40 48.40M157.80 48.40L150.60 35.65L162.75 35.65L170.05 48.40L157.80 48.40M150.65 36.05L146.50 30.70L156.55 30.70Q159 30.70 160.35 29.47Q161.70 28.25 161.70 26.05Q161.70 24.15 160.53 23.32Q159.35 22.50 157.30 22.50L148.15 22.50L154.45 17.00L150.65 36.05Z"/></g></g></svg>