<svg xmlns="http://www.w3.org/2000/svg" viewBox="0 12.600000381469727 263.20001220703125 36.60000228881836" data-asc="0.968"><defs/><g fill="currentColor"><g fill="currentColor"><g fill="currentColor" transform="translate(0, 0)"><path d="M15.15 49.20Q12.05 49.20 9.20 48.75Q6.35 48.30 4.03 47.48Q1.70 46.65 0 45.65L4.55 36.95Q6.50 38.05 8.47 38.77Q10.45 39.50 12.43 39.85Q14.40 40.20 16.35 40.20Q17.90 40.20 18.93 39.95Q19.95 39.70 20.48 39.22Q21 38.75 21 38.15Q21 37.35 20.10 36.85Q19.20 36.35 17.72 35.95Q16.25 35.55 14.48 35.13Q12.70 34.70 10.90 34.02Q9.10 33.35 7.63 32.30Q6.15 31.25 5.25 29.65Q4.35 28.05 4.35 25.75Q4.35 21.75 6.48 18.80Q8.60 15.85 12.58 14.22Q16.55 12.60 22.05 12.60Q25.95 12.60 29.32 13.38Q32.70 14.15 35.15 15.60L30.90 24.20Q28.80 22.90 26.32 22.25Q23.85 21.60 21.30 21.60Q19.60 21.60 18.45 21.92Q17.30 22.25 16.73 22.80Q16.15 23.35 16.15 23.95Q16.15 24.75 17.05 25.27Q17.95 25.80 19.45 26.17Q20.95 26.55 22.73 26.97Q24.50 27.40 26.27 28.02Q28.05 28.65 29.55 29.67Q31.05 30.70 31.95 32.27Q32.85 33.85 32.85 36.15Q32.85 40.05 30.70 42.97Q28.55 45.90 24.57 47.55Q20.60 49.20 15.15 49.20ZM49.30 26.40L64.90 26.40L63.20 34.90L47.60 34.90L49.30 26.40M47.45 39.50L65 39.50L63.20 48.40L34.10 48.40L41.10 13.40L69.55 13.40L67.75 22.30L50.90 22.30L47.45 39.50ZM75.35 48.40L80.50 22.55L70.25 22.55L72.10 13.40L104.40 13.40L102.55 22.55L92.30 22.55L87.15 48.40L75.35 48.40ZM108.05 48.40L113.20 22.55L102.95 22.55L104.80 13.40L137.10 13.40L135.25 22.55L125.00 22.55L119.85 48.40L108.05 48.40ZM133.15 48.40L140.15 13.40L151.95 13.40L144.95 48.40L133.15 48.40ZM150.65 48.40L157.65 13.40L167.35 13.40L180.50 34.70L176.40 34.70L180.65 13.40L192.15 13.40L185.15 48.40L175.45 48.40L162.30 27.10L166.40 27.10L162.15 48.40L150.65 48.40ZM210.75 49.20Q205.35 49.20 201.30 47.23Q197.25 45.25 195.03 41.72Q192.80 38.20 192.80 33.55Q192.80 28.95 194.43 25.10Q196.05 21.25 199.05 18.45Q202.05 15.65 206.18 14.13Q210.30 12.60 215.30 12.60Q220.80 12.60 224.78 14.32Q228.75 16.05 231.20 19.45L222.75 26.00Q221.05 23.80 219.15 22.97Q217.25 22.15 214.75 22.15Q212.45 22.15 210.60 22.92Q208.75 23.70 207.43 25.12Q206.10 26.55 205.40 28.50Q204.70 30.45 204.70 32.80Q204.70 34.85 205.63 36.40Q206.55 37.95 208.28 38.80Q210 39.65 212.40 39.65Q214.40 39.65 216.40 38.97Q218.40 38.30 220.50 36.65L224.95 45.05Q222.20 47.05 218.55 48.13Q214.90 49.20 210.75 49.20M215.05 43.25L217.70 29.95L227.95 29.95L224.95 45.05L215.05 43.25ZM243.20 49.20Q240.10 49.20 237.25 48.75Q234.40 48.30 232.07 47.48Q229.75 46.65 228.05 45.65L232.60 36.95Q234.55 38.05 236.52 38.77Q238.50 39.50 240.47 39.85Q242.45 40.20 244.40 40.20Q245.95 40.20 246.97 39.95Q248 39.70 248.52 39.22Q249.05 38.75 249.05 38.15Q249.05 37.35 248.15 36.85Q247.25 36.35 245.77 35.95Q244.30 35.55 242.52 35.13Q240.75 34.70 238.95 34.02Q237.15 33.35 235.67 32.30Q234.20 31.25 233.30 29.65Q232.40 28.05 232.40 25.75Q232.40 21.75 234.52 18.80Q236.65 15.85 240.63 14.22Q244.60 12.60 250.10 12.60Q254 12.60 257.38 13.38Q260.75 14.15 263.20 15.60L258.95 24.20Q256.85 22.90 254.38 22.25Q251.90 21.60 249.35 21.60Q247.65 21.60 246.50 21.92Q245.35 22.25 244.77 22.80Q244.20 23.35 244.20 23.95Q244.20 24.75 245.10 25.27Q246 25.80 247.50 26.17Q249 26.55 250.77 26.97Q252.55 27.40 254.32 28.02Q256.10 28.65 257.60 29.67Q259.10 30.70 260 32.27Q260.90 33.85 260.90 36.15Q260.90 40.05 258.75 42.97Q256.60 45.90 252.63 47.55Q248.65 49.20 243.20 49.20Z"/></g></g></g></svg>